# xmcd CD database file
#
# Track frame offsets:
#	150
#	16770
#	28177
#	40620
#	54785
#	68903
#	83260
#	100562
#	114275
#
# Disc length: 1767 seconds
#
# Revision: 0
# Processed by: cddbd v1.4PL0 Copyright (c) Steve Scherf et al.
# Submitted via: CdAid 2001.05.15.01
#
DISCID=5406e509
DTITLE=Rosanne Drucker - Rosanne Drucker
DYEAR=1900
DGENRE=
TTITLE0=Close Enough
TTITLE1=I Love Another
TTITLE2=Never Happy Till I'm Blue
TTITLE3=Hold Me
TTITLE4=I Hope It's You
TTITLE5=I'm Not Crying Anymore
TTITLE6=When You Surrender
TTITLE7=I'm Never Gonna Try Again
TTITLE8=I Still Wonder Why (Live Version)
EXTD=
EXTT0=
EXTT1=
EXTT2=
EXTT3=
EXTT4=
EXTT5=
EXTT6=
EXTT7=
EXTT8=
PLAYORDER=
